<svg data-logo="logo" xmlns="http://www.w3.org/2000/svg" viewBox="0 0 228 43">
        <g style="opacity: 1;" id="logogram" transform="translate(0, 1) rotate(0)"><path d="M13.5998 0.699913C19.6248 0.699913 24.5089 5.58408 24.5089 11.609V30.6999C24.5089 31.202 24.9159 31.609 25.418 31.609C25.9201 31.609 26.3271 31.202 26.3271 30.6999V11.609C26.3271 5.58408 31.2113 0.699913 37.2362 0.699913H51.7816C58.8107 0.699913 64.5089 6.39811 64.5089 13.4272V17.9868C64.5089 21.0489 63.4053 24.0092 61.3999 26.3231L48.939 40.6999H34.5036L53.1559 19.1783L53.2571 19.0504C53.4795 18.742 53.5998 18.3698 53.5998 17.9868V13.4272C53.5998 12.423 52.7858 11.609 51.7816 11.609H39.0544V10.6999C39.0544 10.1978 38.6474 9.79082 38.1453 9.79082C37.6432 9.79082 37.2362 10.1978 37.2362 10.6999V29.7908C37.2362 35.8157 32.352 40.6999 26.3271 40.6999H24.5089C18.484 40.6999 13.5998 35.8157 13.5998 29.7908V10.6999C13.5998 10.1978 13.1928 9.79082 12.6907 9.79082C12.1887 9.79082 11.7816 10.1978 11.7816 10.6999V40.6999H0.872559V11.609C0.872559 5.58408 5.75673 0.699913 11.7816 0.699913H13.5998Z" fill="#FFFFFF"></path></g>
        <g style="opacity: 1;" id="logotype" transform="translate(71, 8)"><path fill="#ffffff" d="M13.49 27L8.31 27L8.31 1.54L16.31 1.54L20.44 13.23Q20.70 14.05 21.03 15.34Q21.36 16.64 21.71 18.15Q22.05 19.65 22.35 21.07Q22.65 22.49 22.83 23.53L22.83 23.53L21.83 23.53Q22.01 22.51 22.31 21.10Q22.61 19.69 22.95 18.18Q23.29 16.68 23.63 15.36Q23.96 14.05 24.22 13.23L24.22 13.23L28.29 1.54L36.32 1.54L36.32 27L31.07 27L31.07 14.99Q31.07 14.17 31.10 12.92Q31.14 11.67 31.17 10.23Q31.21 8.78 31.24 7.32Q31.28 5.86 31.29 4.56L31.29 4.56L31.62 4.56Q31.29 5.98 30.90 7.49Q30.51 9.00 30.11 10.42Q29.70 11.84 29.34 13.03Q28.99 14.22 28.73 14.99L28.73 14.99L24.51 27L20.12 27L15.83 14.99Q15.57 14.22 15.21 13.05Q14.85 11.88 14.45 10.46Q14.05 9.04 13.64 7.53Q13.23 6.01 12.85 4.56L12.85 4.56L13.26 4.56Q13.28 5.79 13.31 7.24Q13.35 8.70 13.39 10.16Q13.43 11.62 13.46 12.88Q13.49 14.13 13.49 14.99L13.49 14.99L13.49 27ZM47.15 27.38L47.15 27.38Q44.23 27.38 42.11 26.18Q39.99 24.98 38.85 22.78Q37.72 20.57 37.72 17.55L37.72 17.55Q37.72 14.59 38.84 12.37Q39.97 10.15 42.04 8.90Q44.11 7.65 46.89 7.65L46.89 7.65Q48.77 7.65 50.40 8.25Q52.02 8.85 53.25 10.06Q54.48 11.26 55.17 13.07Q55.87 14.88 55.87 17.34L55.87 17.34L55.87 18.78L39.82 18.78L39.82 15.57L53.35 15.57L50.96 16.42Q50.96 14.93 50.51 13.83Q50.06 12.73 49.16 12.12Q48.26 11.52 46.93 11.52L46.93 11.52Q45.61 11.52 44.68 12.13Q43.75 12.75 43.27 13.80Q42.79 14.85 42.79 16.20L42.79 16.20L42.79 18.47Q42.79 20.13 43.35 21.26Q43.90 22.39 44.90 22.95Q45.90 23.51 47.24 23.51L47.24 23.51Q48.14 23.51 48.88 23.26Q49.61 23.00 50.13 22.50Q50.65 21.99 50.93 21.26L50.93 21.26L55.58 22.13Q55.11 23.70 53.97 24.89Q52.82 26.08 51.11 26.73Q49.39 27.38 47.15 27.38ZM65.72 27.38L65.72 27.38Q62.80 27.38 60.68 26.18Q58.56 24.98 57.43 22.78Q56.29 20.57 56.29 17.55L56.29 17.55Q56.29 14.59 57.42 12.37Q58.55 10.15 60.62 8.90Q62.68 7.65 65.47 7.65L65.47 7.65Q67.35 7.65 68.97 8.25Q70.60 8.85 71.83 10.06Q73.06 11.26 73.75 13.07Q74.44 14.88 74.44 17.34L74.44 17.34L74.44 18.78L58.39 18.78L58.39 15.57L71.93 15.57L69.54 16.42Q69.54 14.93 69.08 13.83Q68.63 12.73 67.73 12.12Q66.84 11.52 65.50 11.52L65.50 11.52Q64.19 11.52 63.26 12.13Q62.32 12.75 61.85 13.80Q61.37 14.85 61.37 16.20L61.37 16.20L61.37 18.47Q61.37 20.13 61.92 21.26Q62.48 22.39 63.48 22.95Q64.48 23.51 65.81 23.51L65.81 23.51Q66.72 23.51 67.45 23.26Q68.19 23.00 68.71 22.50Q69.23 21.99 69.50 21.26L69.50 21.26L74.15 22.13Q73.69 23.70 72.54 24.89Q71.40 26.08 69.68 26.73Q67.96 27.38 65.72 27.38ZM73.82 7.89L85.15 7.89L85.15 11.81L73.82 11.81L73.82 7.89ZM76.46 21.86L76.46 3.35L81.58 3.35L81.58 21.41Q81.58 22.32 81.98 22.75Q82.39 23.19 83.33 23.19L83.33 23.19Q83.62 23.19 84.15 23.11Q84.68 23.04 84.95 22.97L84.95 22.97L85.68 26.81Q84.83 27.07 83.98 27.17Q83.14 27.27 82.37 27.27L82.37 27.27Q79.50 27.27 77.98 25.87Q76.46 24.47 76.46 21.86L76.46 21.86ZM95.41 27L90.19 27L84.55 7.89L89.94 7.89L91.59 14.95Q92.02 16.85 92.52 19.08Q93.01 21.31 93.42 24.01L93.42 24.01L92.84 24.01Q93.29 21.38 93.82 19.14Q94.35 16.90 94.81 14.95L94.81 14.95L96.55 7.89L101.27 7.89L102.96 14.95Q103.40 16.88 103.93 19.11Q104.46 21.34 104.92 24.01L104.92 24.01L104.34 24.01Q104.75 21.36 105.22 19.13Q105.69 16.90 106.14 14.95L106.14 14.95L107.80 7.89L113.25 7.89L107.57 27L102.36 27L100.24 19.63Q99.93 18.52 99.63 17.18Q99.32 15.84 99.03 14.45Q98.74 13.05 98.43 11.84L98.43 11.84L99.34 11.84Q99.05 13.05 98.75 14.45Q98.45 15.84 98.14 17.19Q97.83 18.54 97.52 19.63L97.52 19.63L95.41 27ZM118.82 27L113.69 27L113.69 7.89L118.82 7.89L118.82 27ZM116.25 5.40L116.25 5.40Q115.09 5.40 114.27 4.63Q113.45 3.86 113.45 2.77L113.45 2.77Q113.45 1.67 114.27 0.90Q115.09 0.13 116.25 0.13L116.25 0.13Q117.42 0.13 118.24 0.90Q119.07 1.66 119.07 2.77L119.07 2.77Q119.07 3.86 118.24 4.63Q117.42 5.40 116.25 5.40ZM128.49 27.38L128.49 27.38Q126.18 27.38 124.40 26.72Q122.63 26.06 121.50 24.80Q120.37 23.55 120.05 21.77L120.05 21.77L124.81 20.95Q125.19 22.28 126.13 22.95Q127.07 23.62 128.64 23.62L128.64 23.62Q130.09 23.62 130.95 23.06Q131.80 22.51 131.80 21.65L131.80 21.65Q131.80 20.90 131.20 20.42Q130.59 19.94 129.34 19.69L129.34 19.69L126.04 19.00Q123.28 18.44 121.91 17.08Q120.54 15.72 120.54 13.58L120.54 13.58Q120.54 11.74 121.55 10.41Q122.56 9.09 124.35 8.37Q126.15 7.65 128.57 7.65L128.57 7.65Q130.83 7.65 132.49 8.28Q134.14 8.90 135.17 10.05Q136.20 11.19 136.54 12.75L136.54 12.75L131.99 13.55Q131.70 12.58 130.87 11.95Q130.04 11.33 128.64 11.33L128.64 11.33Q127.38 11.33 126.52 11.86Q125.67 12.39 125.67 13.26L125.67 13.26Q125.67 13.99 126.22 14.49Q126.78 14.99 128.13 15.26L128.13 15.26L131.56 15.94Q134.33 16.51 135.68 17.78Q137.03 19.05 137.03 21.10L137.03 21.10Q137.03 22.98 135.94 24.39Q134.85 25.80 132.92 26.59Q131.00 27.38 128.49 27.38ZM146.86 27.38L146.86 27.38Q143.93 27.38 141.82 26.18Q139.70 24.98 138.56 22.78Q137.42 20.57 137.42 17.55L137.42 17.55Q137.42 14.59 138.55 12.37Q139.68 10.15 141.75 8.90Q143.82 7.65 146.60 7.65L146.60 7.65Q148.48 7.65 150.10 8.25Q151.73 8.85 152.96 10.06Q154.19 11.26 154.88 13.07Q155.57 14.88 155.57 17.34L155.57 17.34L155.57 18.78L139.53 18.78L139.53 15.57L153.06 15.57L150.67 16.42Q150.67 14.93 150.22 13.83Q149.76 12.73 148.87 12.12Q147.97 11.52 146.64 11.52L146.64 11.52Q145.32 11.52 144.39 12.13Q143.46 12.75 142.98 13.80Q142.50 14.85 142.50 16.20L142.50 16.20L142.50 18.47Q142.50 20.13 143.05 21.26Q143.61 22.39 144.61 22.95Q145.61 23.51 146.94 23.51L146.94 23.51Q147.85 23.51 148.58 23.26Q149.32 23.00 149.84 22.50Q150.36 21.99 150.63 21.26L150.63 21.26L155.28 22.13Q154.82 23.70 153.68 24.89Q152.53 26.08 150.81 26.73Q149.10 27.38 146.86 27.38Z"></path></g>
        
      </svg>